<?xml version="1.0" standalone="no"?>
<!DOCTYPE svg PUBLIC "-//W3C//DTD SVG 20010904//EN"
 "http://www.w3.org/TR/2001/REC-SVG-20010904/DTD/svg10.dtd">
<svg version="1.0" xmlns="http://www.w3.org/2000/svg"
 width="834.000000pt" height="901.000000pt" viewBox="0 0 834.000000 901.000000"
 preserveAspectRatio="xMidYMid meet">

<g transform="translate(0.000000,901.000000) scale(0.100000,-0.100000)"
fill="#000000" stroke="none">
<path d="M2651 6319 c-132 -15 -276 -47 -406 -90 -655 -218 -1080 -724 -1201
-1429 -21 -128 -30 -476 -15 -610 39 -345 147 -661 308 -904 82 -124 290 -336
412 -421 119 -83 291 -168 434 -214 213 -69 367 -91 627 -91 462 1 792 116
1080 376 82 73 220 222 220 236 0 7 -101 125 -241 279 -80 89 -136 122 -213
122 -63 1 -95 -15 -206 -105 -174 -141 -341 -198 -580 -198 -149 0 -227 11
-337 49 -346 119 -583 439 -647 874 -34 228 -14 515 50 717 98 311 296 540
555 640 142 55 198 64 379 64 138 0 180 -3 254 -22 104 -26 222 -79 332 -150
113 -72 148 -85 213 -79 67 7 118 40 169 109 125 170 246 346 249 364 6 26
-84 109 -211 195 -204 138 -424 223 -692 269 -135 23 -410 33 -533 19z"/>
<path d="M4450 4445 l0 -1845 68 -1 c37 0 144 -2 237 -4 94 -3 252 -2 353 2
l182 6 0 689 0 690 148 -4 c130 -4 153 -7 197 -28 113 -55 134 -89 614 -1012
114 -218 149 -266 225 -306 l51 -27 444 -3 c362 -2 442 0 434 10 -6 7 -171
294 -368 638 -196 344 -377 655 -401 691 -50 76 -155 179 -202 198 -18 8 -32
16 -32 20 0 3 24 15 53 25 245 86 484 342 581 622 118 338 68 758 -120 1015
-45 62 -177 186 -244 230 -191 126 -446 205 -734 229 -72 5 -427 10 -807 10
l-679 0 0 -1845z m1495 1172 c214 -75 318 -214 332 -442 14 -239 -96 -438
-292 -532 -114 -54 -179 -63 -452 -63 l-243 0 0 536 0 536 288 -4 c284 -4 288
-4 367 -31z"/>
</g>
</svg>
